<svg width="83" height="80" viewBox="0 0 83 80" fill="none" xmlns="http://www.w3.org/2000/svg">
<path d="M16.8594 8.75H66.1406C70.4385 8.75 73.9219 12.1075 73.9219 16.25V63.75C73.9219 67.8925 70.4385 71.25 66.1406 71.25H16.8594C12.5615 71.25 9.07812 67.8925 9.07812 63.75V16.25C9.07812 12.1075 12.5615 8.75 16.8594 8.75Z" fill="#ED7899"/>
<path d="M14.2656 8.75H68.7344C71.5992 8.75 73.9219 10.9887 73.9219 13.75C73.9219 15.8212 72.1802 17.5 70.0312 17.5H12.9688C10.8198 17.5 9.07812 15.8212 9.07812 13.75C9.07812 10.9887 11.4008 8.75 14.2656 8.75Z" fill="#F283A5"/>
<path d="M66.1406 72.5H16.8594C11.8534 72.5 7.78125 68.5737 7.78125 63.75V16.25C7.78125 11.4262 11.8534 7.5 16.8594 7.5H66.1406C71.1466 7.5 75.2188 11.4262 75.2188 16.25V63.75C75.2188 68.5737 71.1466 72.5 66.1406 72.5ZM16.8594 10C13.2839 10 10.375 12.8038 10.375 16.25V63.75C10.375 67.1963 13.2839 70 16.8594 70H66.1406C69.7161 70 72.625 67.1963 72.625 63.75V16.25C72.625 12.8038 69.7161 10 66.1406 10H16.8594Z" fill="#8D6C9F"/>
<path d="M57.0625 24.3875V53.75C57.0625 57.2 54.1575 60 50.5781 60H49.2812C46.078 60 43.5491 57.2 44.1975 53.9875C44.6773 51.6125 46.9987 50 49.5017 50H50.5781C51.2914 50 51.875 49.4375 51.875 48.75V31.1375L33.7187 35.1125V58.75C33.7187 62.2 30.8137 65 27.2344 65H25.9375C22.7342 65 20.2053 62.2 20.8537 58.9875C21.3336 56.6125 23.655 55 26.158 55H27.2344C27.9477 55 28.5312 54.4375 28.5312 53.75V29.5C28.5312 28.325 29.3742 27.3125 30.5544 27.0625L53.8981 21.95C55.5192 21.5875 57.0625 22.775 57.0625 24.3875Z" fill="#FAEFDE"/>
<path d="M57.0625 24.3875V25.9125C56.4789 26.3375 55.8045 26.6625 55.0394 26.825L31.6956 31.9375C31.3066 32.025 30.9305 32.0625 30.5414 32.0625C29.8411 32.0625 29.1667 31.925 28.5312 31.6625V29.5C28.5312 28.325 29.3742 27.3125 30.5544 27.0625L53.8981 21.95C55.5192 21.5875 57.0625 22.775 57.0625 24.3875Z" fill="#FFF8EE"/>
<path d="M27.2344 66.25H25.9375C23.9922 66.25 22.1675 65.42 20.9303 63.9712C19.693 62.5237 19.2015 60.6212 19.5789 58.7525C20.1664 55.8537 22.9339 53.75 26.1606 53.75H27.2344V29.4962C27.2344 27.7337 28.4794 26.2312 30.2626 25.8387L53.6063 20.725C54.767 20.47 55.964 20.7337 56.8952 21.45C57.8251 22.165 58.3594 23.235 58.3594 24.3825V53.75C58.3594 57.8862 54.8695 61.25 50.5781 61.25H49.2812C47.3359 61.25 45.5112 60.42 44.274 58.9712C43.0368 57.5237 42.5453 55.6212 42.9227 53.7525C43.5102 50.8537 46.2777 48.75 49.5043 48.75H50.5781V32.7025L35.0156 36.1112V58.75C35.0156 62.8862 31.5257 66.25 27.2344 66.25ZM26.1606 56.25C24.2049 56.25 22.4697 57.5312 22.126 59.2312C21.8925 60.3812 22.1805 61.5 22.9339 62.3825C23.6758 63.2525 24.7716 63.75 25.9375 63.75H27.2344C30.0953 63.75 32.4219 61.5075 32.4219 58.75V35.1137C32.4219 34.53 32.8408 34.0237 33.4308 33.8937L51.5871 29.9162C51.971 29.8325 52.3756 29.9212 52.6842 30.1587C52.9929 30.3962 53.1719 30.7562 53.1719 31.1362V48.75C53.1719 50.1287 52.0086 51.25 50.5781 51.25H49.5043C47.5486 51.25 45.8134 52.5312 45.4697 54.2312C45.2363 55.3812 45.5242 56.5 46.2777 57.3825C47.0195 58.2525 48.1154 58.75 49.2812 58.75H50.5781C53.439 58.75 55.7656 56.5075 55.7656 53.75V24.3825C55.7656 23.9987 55.588 23.6425 55.278 23.405C54.968 23.1675 54.5686 23.08 54.1821 23.1637C54.1821 23.1637 54.1821 23.1637 54.1821 23.165L30.8384 28.2787C30.2431 28.4075 29.8281 28.9087 29.8281 29.4962V53.75C29.8281 55.1287 28.6648 56.25 27.2344 56.25H26.1606ZM53.8942 21.945H53.9072H53.8942Z" fill="#8D6C9F"/>
<path d="M31.6645 22.4087C31.0835 22.4087 30.5557 22.03 30.4078 21.4612L29.7788 19.0362C29.6051 18.3675 30.0278 17.6887 30.723 17.5212C31.4168 17.355 32.1223 17.7587 32.2961 18.4312L32.9251 20.8562C33.0988 21.525 32.6761 22.2037 31.9809 22.3712C31.8746 22.3962 31.7682 22.4087 31.6645 22.4087Z" fill="#8D6C9F"/>
<path d="M38.4303 20.7775C37.8493 20.7775 37.3215 20.3988 37.1736 19.83L36.5446 17.405C36.3709 16.7363 36.7936 16.0575 37.4888 15.89C38.1787 15.7213 38.8881 16.1275 39.0606 16.8L39.6896 19.225C39.8633 19.8938 39.4406 20.5725 38.7454 20.74C38.6404 20.765 38.534 20.7775 38.4303 20.7775Z" fill="#8D6C9F"/>
<path d="M45.1961 19.1475C44.6151 19.1475 44.0873 18.7687 43.9394 18.2L43.3104 15.775C43.1367 15.1062 43.5594 14.4275 44.2546 14.26C44.9432 14.0925 45.6526 14.4975 45.8264 15.17L46.4554 17.595C46.6291 18.2637 46.2064 18.9425 45.5112 19.11C45.4062 19.1362 45.3011 19.1475 45.1961 19.1475Z" fill="#8D6C9F"/>
<path d="M51.9632 17.5175C51.3822 17.5175 50.8544 17.1387 50.7065 16.57L50.0775 14.145C49.9038 13.4762 50.3265 12.7975 51.0217 12.63C51.7168 12.4637 52.421 12.8675 52.5948 13.54L53.2238 15.965C53.3975 16.6337 52.9748 17.3125 52.2796 17.48C52.1733 17.505 52.0669 17.5175 51.9632 17.5175Z" fill="#8D6C9F"/>
</svg>
