<svg width="94" height="80" viewBox="0 0 94 80" fill="none" xmlns="http://www.w3.org/2000/svg">
<path d="M12.22 24.8C13.2583 24.8 14.1 24.0837 14.1 23.2C14.1 22.3164 13.2583 21.6 12.22 21.6C11.1817 21.6 10.34 22.3164 10.34 23.2C10.34 24.0837 11.1817 24.8 12.22 24.8Z" fill="#EE3E54"/>
<path d="M72.38 11.2C72.8991 11.2 73.32 10.8418 73.32 10.4C73.32 9.95818 72.8991 9.60001 72.38 9.60001C71.8609 9.60001 71.44 9.95818 71.44 10.4C71.44 10.8418 71.8609 11.2 72.38 11.2Z" fill="#F1BC19"/>
<path d="M47 69.6C66.2085 69.6 81.78 56.3476 81.78 40C81.78 23.6524 66.2085 10.4 47 10.4C27.7915 10.4 12.22 23.6524 12.22 40C12.22 56.3476 27.7915 69.6 47 69.6Z" fill="#FCE0A2"/>
<path d="M78.02 15.2C80.0966 15.2 81.78 13.7673 81.78 12C81.78 10.2327 80.0966 8.8 78.02 8.8C75.9434 8.8 74.26 10.2327 74.26 12C74.26 13.7673 75.9434 15.2 78.02 15.2Z" fill="#F1BC19"/>
<path d="M81.78 20.8C82.8183 20.8 83.66 20.0837 83.66 19.2C83.66 18.3164 82.8183 17.6 81.78 17.6C80.7417 17.6 79.9 18.3164 79.9 19.2C79.9 20.0837 80.7417 20.8 81.78 20.8Z" fill="#EE3E54"/>
<path d="M76.14 62.4C77.1783 62.4 78.02 61.6837 78.02 60.8C78.02 59.9164 77.1783 59.2 76.14 59.2C75.1017 59.2 74.26 59.9164 74.26 60.8C74.26 61.6837 75.1017 62.4 76.14 62.4Z" fill="#FBCD59"/>
<path d="M14.1 53.6C16.1766 53.6 17.86 52.1673 17.86 50.4C17.86 48.6327 16.1766 47.2 14.1 47.2C12.0234 47.2 10.34 48.6327 10.34 50.4C10.34 52.1673 12.0234 53.6 14.1 53.6Z" fill="#FBCD59"/>
<path d="M23.5 71.2C24.5383 71.2 25.38 70.4837 25.38 69.6C25.38 68.7163 24.5383 68 23.5 68C22.4617 68 21.62 68.7163 21.62 69.6C21.62 70.4837 22.4617 71.2 23.5 71.2Z" fill="#EE3E54"/>
<path d="M17.39 44.8C18.6879 44.8 19.74 43.9046 19.74 42.8C19.74 41.6954 18.6879 40.8 17.39 40.8C16.0921 40.8 15.04 41.6954 15.04 42.8C15.04 43.9046 16.0921 44.8 17.39 44.8Z" fill="white"/>
<path d="M19.74 54.4C20.2592 54.4 20.68 54.0418 20.68 53.6C20.68 53.1582 20.2592 52.8 19.74 52.8C19.2209 52.8 18.8 53.1582 18.8 53.6C18.8 54.0418 19.2209 54.4 19.74 54.4Z" fill="#F1BC19"/>
<path d="M75.2 28C75.7192 28 76.14 27.6418 76.14 27.2C76.14 26.7582 75.7192 26.4 75.2 26.4C74.6809 26.4 74.26 26.7582 74.26 27.2C74.26 27.6418 74.6809 28 75.2 28Z" fill="white"/>
<path d="M67.962 26.96V53.04C67.962 55.688 65.4334 57.84 62.322 57.84H31.678C28.5666 57.84 26.038 55.688 26.038 53.04V26.96C26.038 24.312 28.5666 22.16 31.678 22.16H62.322C65.4334 22.16 67.962 24.312 67.962 26.96Z" fill="#3231C7"/>
<path d="M67.962 38.432V53.04C67.962 55.688 65.4334 57.84 62.322 57.84H31.678C28.5666 57.84 26.038 55.688 26.038 53.04V26.96C26.038 24.312 28.5666 22.16 31.678 22.16H48.8424C56.964 25.832 63.6474 31.52 67.962 38.432Z" fill="#7228AD"/>
<path d="M65.8 56.8C65.8 56.808 65.8 56.808 65.8 56.816C64.8412 57.456 63.638 57.84 62.322 57.84H31.678C28.5666 57.84 26.038 55.688 26.038 53.04V26.96C26.038 25.84 26.4892 24.816 27.2412 24C27.2506 24 27.2506 24 27.26 24C48.5416 24 65.8 38.688 65.8 56.8Z" fill="#B11E93"/>
<path d="M58.28 56.8C58.28 57.152 58.2706 57.496 58.2518 57.84H31.678C28.5666 57.84 26.038 55.688 26.038 53.04V30.424C26.4422 30.408 26.8464 30.4 27.26 30.4C44.3962 30.4 58.28 42.216 58.28 56.8Z" fill="#DB1A58"/>
<path d="M50.76 56.8C50.76 57.144 50.7506 57.496 50.7318 57.84H31.678C28.5666 57.84 26.038 55.688 26.038 53.04V36.824C26.4422 36.808 26.8558 36.8 27.26 36.8C40.2414 36.8 50.76 45.752 50.76 56.8Z" fill="#E4273E"/>
<path d="M44.18 56.8C44.18 57.152 44.1612 57.496 44.133 57.84H31.678C28.5666 57.84 26.038 55.688 26.038 53.04V42.44C26.4422 42.416 26.8464 42.4 27.26 42.4C36.6036 42.4 44.18 48.848 44.18 56.8Z" fill="#F47C22"/>
<path d="M38.54 56.8C38.54 57.152 38.5212 57.496 38.4742 57.84H31.678C28.5666 57.84 26.038 55.688 26.038 53.04V47.256C26.4422 47.216 26.8464 47.2 27.26 47.2C33.4922 47.2 38.54 51.496 38.54 56.8Z" fill="#EF9922"/>
<path d="M62.322 58.4H31.678C28.2056 58.4 25.38 55.9952 25.38 53.04V26.96C25.38 24.0048 28.2056 21.6 31.678 21.6H62.322C65.7944 21.6 68.62 24.0048 68.62 26.96V53.04C68.62 55.9952 65.7944 58.4 62.322 58.4ZM31.678 22.72C28.9304 22.72 26.696 24.6216 26.696 26.96V53.04C26.696 55.3776 28.9304 57.28 31.678 57.28H62.322C65.0696 57.28 67.304 55.3784 67.304 53.04V26.96C67.304 24.6224 65.0696 22.72 62.322 22.72H31.678Z" fill="#472B29"/>
<path d="M46.9906 52.36C43.2475 52.36 41.8545 52.3512 40.4313 52.296C39.1266 52.2464 38.1104 52.0792 37.1366 51.7544C36.191 51.444 35.4512 51.0352 34.7368 50.4272C34.029 49.824 33.5477 49.1936 33.1783 48.3848C32.807 47.5792 32.6105 46.7144 32.5419 45.5808C32.477 44.3608 32.4667 43.176 32.4667 39.9992C32.4667 36.828 32.477 35.6456 32.5419 34.4248C32.6002 33.3144 32.7966 32.4504 33.1773 31.6216C33.5477 30.8048 34.028 30.1752 34.7368 29.5792C35.4455 28.9768 36.1853 28.5672 37.1375 28.252C38.1104 27.928 39.1266 27.7616 40.4313 27.7104C41.9024 27.6544 43.3124 27.6384 46.9906 27.6384C50.6698 27.6384 52.077 27.6544 53.5396 27.7104C54.8443 27.7608 55.8605 27.9272 56.8352 28.252C57.795 28.5672 58.5338 28.976 59.2341 29.5792C59.9363 30.1696 60.4204 30.7984 60.803 31.6216C61.1761 32.4584 61.3707 33.324 61.4299 34.4248C61.4958 35.6888 61.5146 36.8872 61.5146 39.9984C61.5146 43.116 61.4958 44.316 61.4299 45.5808C61.3707 46.6824 61.1771 47.5472 60.803 48.3848C60.4204 49.1992 59.9354 49.8296 59.2341 50.4264C58.5357 51.028 57.7987 51.4376 56.8437 51.7536C55.8576 52.0776 54.8387 52.2448 53.5396 52.2944C52.1164 52.3512 50.7262 52.36 46.9906 52.36ZM45.7592 29.96C43.1723 29.96 41.752 29.9768 40.5187 30.0232C39.2572 30.0728 38.5616 30.2528 38.0963 30.404C37.5164 30.5976 37.1009 30.828 36.6628 31.2024C36.2239 31.5752 35.9531 31.9264 35.7294 32.4152C35.5499 32.8136 35.3374 33.4072 35.2792 34.4832C35.2152 35.688 35.2049 36.7992 35.2049 39.9928C35.2049 43.1928 35.2152 44.3048 35.2792 45.5088C35.3374 46.5776 35.5489 47.1696 35.7275 47.5664C35.9522 48.0616 36.222 48.4152 36.6581 48.7864C37.1028 49.1584 37.5192 49.388 38.0963 49.5816C38.5466 49.732 39.2281 49.9104 40.5178 49.9616C41.9842 50.0176 43.3754 50.0328 46.9925 50.0328C50.6171 50.0328 52.0102 50.0176 53.4738 49.9616C54.7945 49.9096 55.492 49.7192 55.9018 49.58C56.4696 49.3928 56.8832 49.1656 57.325 48.7976C57.763 48.4168 58.0347 48.0624 58.2659 47.5704C58.4408 47.1808 58.6466 46.5968 58.7068 45.5104C58.7716 44.252 58.7904 43.0664 58.7904 39.9928C58.7904 36.9248 58.7716 35.7408 58.7068 34.484C58.6476 33.3992 58.4417 32.8152 58.2678 32.428C58.0431 31.932 57.7743 31.5792 57.3372 31.208C56.8691 30.816 56.4884 30.608 55.8821 30.4104C55.4459 30.2624 54.7748 30.084 53.4757 30.032C52.0328 29.976 50.6388 29.9608 46.9934 29.9608H45.7592V29.96Z" fill="white"/>
<path d="M46.9906 27.84C50.6651 27.84 52.0713 27.8552 53.5292 27.912C54.8067 27.9608 55.7993 28.124 56.7516 28.44C57.6775 28.744 58.3909 29.1384 59.0705 29.724C59.7464 30.292 60.2136 30.9 60.5821 31.6912C60.9477 32.5104 61.1367 33.356 61.1949 34.4344C61.2607 35.6952 61.2786 36.892 61.2786 40C61.2786 43.1144 61.2607 44.312 61.1949 45.5728C61.1367 46.6528 60.9477 47.4984 60.5858 48.3088C60.2136 49.1 59.7455 49.7096 59.0658 50.288C58.3928 50.868 57.6812 51.2632 56.76 51.568C55.7984 51.884 54.802 52.0472 53.5302 52.096C52.1117 52.1512 50.7233 52.16 46.9915 52.16C43.2522 52.16 41.861 52.1512 40.4426 52.096C39.1651 52.0472 38.1725 51.8848 37.2221 51.568C36.3094 51.268 35.595 50.8728 34.905 50.2864C34.2207 49.7032 33.7563 49.0952 33.3982 48.312C33.0372 47.5272 32.8464 46.6816 32.7787 45.5736C32.7139 44.356 32.7035 43.1728 32.7035 39.9992C32.7035 36.832 32.7139 35.6504 32.7787 34.4336C32.8361 33.3464 33.0269 32.5016 33.3991 31.692C33.7563 30.904 34.2198 30.296 34.906 29.72C35.5893 29.1384 36.3047 28.7432 37.2249 28.4384C38.1734 28.1232 39.166 27.96 40.4435 27.9104C41.9099 27.8552 43.3171 27.84 46.9906 27.84ZM46.9906 50.232C50.6199 50.232 52.0149 50.2168 53.4832 50.1608C54.8396 50.1072 55.5615 49.9096 55.9817 49.7664C56.5842 49.568 57.0204 49.3288 57.4942 48.9336C57.9519 48.536 58.2377 48.1624 58.484 47.6376C58.6635 47.2368 58.8778 46.6336 58.938 45.5184C59.0038 44.2576 59.0217 43.0696 59.0217 39.992C59.0217 36.9208 59.0038 35.7344 58.938 34.4736C58.8769 33.3608 58.6635 32.7576 58.484 32.3536C58.2499 31.8376 57.9557 31.4528 57.4979 31.0624C57.011 30.6552 56.5955 30.4272 55.9704 30.224C55.5136 30.0688 54.8189 29.884 53.4841 29.8304C52.0375 29.7744 50.6416 29.7592 46.9915 29.7592H45.7592C43.1686 29.7592 41.7454 29.776 40.5065 29.8224C39.213 29.8736 38.4939 30.0592 38.008 30.2168C37.4054 30.4176 36.9533 30.6696 36.4955 31.0592C36.0377 31.448 35.7426 31.8312 35.5076 32.3432C35.3224 32.7536 35.1024 33.3672 35.0423 34.4728C34.9774 35.6816 34.9671 36.7936 34.9671 39.9912C34.9671 43.1944 34.9765 44.3088 35.0423 45.5168C35.1024 46.6144 35.3214 47.2256 35.5057 47.6368C35.7426 48.16 36.0283 48.5336 36.4927 48.9288C36.9542 49.3144 37.4073 49.5648 38.0089 49.7656C38.4751 49.9208 39.1811 50.1064 40.5055 50.1592C41.9757 50.2168 43.3697 50.232 46.9906 50.232ZM46.9906 27.44C43.2391 27.44 41.8638 27.4568 40.4209 27.512C39.089 27.5632 38.0503 27.7352 37.0529 28.0664C36.0687 28.3928 35.3045 28.816 34.5723 29.4376C33.8391 30.0544 33.3409 30.7056 32.9592 31.5488C32.5682 32.3984 32.367 33.2832 32.3078 34.416C32.2429 35.6456 32.2326 36.8312 32.2326 39.9992C32.2326 43.1744 32.2429 44.3608 32.3078 45.5912C32.3783 46.7464 32.5795 47.6304 32.9592 48.4576C33.3418 49.2936 33.84 49.9448 34.5713 50.5688C35.3102 51.1976 36.0763 51.62 37.052 51.9408C38.0503 52.2736 39.0899 52.4448 40.4209 52.4952C41.8657 52.5512 43.2597 52.56 46.9906 52.56C50.713 52.56 52.1051 52.552 53.5509 52.4952C54.8763 52.4448 55.9187 52.2736 56.9292 51.9408C57.9172 51.6136 58.6786 51.1904 59.4005 50.5688C60.1252 49.952 60.6253 49.3024 61.0229 48.4568C61.4074 47.5968 61.6048 46.7128 61.6659 45.5904C61.7298 44.3616 61.7505 43.1904 61.7505 39.9992C61.7505 36.816 61.7307 35.6448 61.6659 34.416C61.6057 33.2944 61.4083 32.4112 61.022 31.548C60.6262 30.6984 60.1262 30.0472 59.4014 29.4384C58.6767 28.8144 57.9125 28.3912 56.9208 28.0656C55.9215 27.7328 54.8819 27.5624 53.5509 27.5112C52.1164 27.4568 50.7431 27.44 46.9906 27.44ZM46.9906 49.832C43.3791 49.832 41.9898 49.8168 40.5272 49.7608C39.2713 49.7112 38.6133 49.5384 38.1809 49.3944C37.6338 49.2112 37.2409 48.9944 36.8226 48.644C36.4081 48.2912 36.1599 47.9672 35.9447 47.4936C35.7736 47.1128 35.5696 46.5376 35.5123 45.4984C35.4483 44.3048 35.438 43.1936 35.438 39.9912C35.438 36.7952 35.4483 35.6856 35.5123 34.4912C35.5696 33.4448 35.7736 32.8704 35.9465 32.4864C36.158 32.0272 36.4137 31.6944 36.8283 31.3424C37.2419 30.9896 37.6329 30.772 38.18 30.5896C38.6246 30.4456 39.3005 30.2704 40.529 30.2224C41.7548 30.1776 43.1742 30.16 45.7592 30.16H46.9915C50.635 30.16 52.0252 30.1752 53.4634 30.2304C54.7287 30.2808 55.3745 30.452 55.7965 30.596C56.3718 30.7832 56.7271 30.9784 57.1689 31.348C57.5788 31.6968 57.8344 32.0312 58.0469 32.4984C58.2123 32.8688 58.4125 33.4344 58.4699 34.4928C58.5347 35.7384 58.5535 36.9216 58.5535 39.9928C58.5535 43.0704 58.5347 44.2552 58.4699 45.5016C58.4116 46.5592 58.2133 47.1232 58.0459 47.4968C57.826 47.9656 57.575 48.2936 57.1595 48.6552C56.7412 49.0048 56.3596 49.2152 55.8134 49.3944C55.4149 49.5296 54.7512 49.7112 53.4625 49.7616C52.0008 49.8168 50.6096 49.832 46.9906 49.832Z" fill="#472B29"/>
<path d="M54.99 34.6C54.0829 34.6 53.345 33.972 53.345 33.2C53.345 32.428 54.0829 31.8 54.99 31.8H54.9909C55.4299 31.8 55.8426 31.9456 56.1528 32.2096C56.4639 32.4744 56.635 32.8256 56.635 33.1992C56.635 33.972 55.8971 34.6 54.99 34.6Z" fill="white"/>
<path d="M54.99 32C55.7683 32 56.4 32.5376 56.4 33.2C56.4 33.8624 55.7683 34.4 54.99 34.4C54.2117 34.4 53.58 33.8624 53.58 33.2C53.58 32.5376 54.2117 32.0008 54.99 32ZM54.99 31.6C53.9532 31.6008 53.11 32.3184 53.11 33.2C53.11 34.0824 53.9532 34.8 54.99 34.8C56.0268 34.8 56.87 34.0824 56.87 33.2C56.87 32.3176 56.0268 31.6 54.99 31.6Z" fill="#472B29"/>
<path d="M46.9887 33.2032C42.5754 33.2032 38.9978 36.248 38.9978 40.004C38.9978 43.76 42.5754 46.8032 46.9887 46.8032C51.402 46.8032 54.9778 43.7592 54.9778 40.004C54.9778 36.2488 51.4011 33.2032 46.9887 33.2032ZM46.9887 35.604C49.8435 35.604 52.1587 37.5736 52.1587 40.004C52.1587 42.4336 49.8435 44.404 46.9887 44.404C44.133 44.404 41.8187 42.4336 41.8187 40.004C41.8187 37.5736 44.133 35.604 46.9887 35.604Z" fill="white"/>
<path d="M46.9887 47.0032C42.4532 47.0032 38.7628 43.8632 38.7628 40.0032C38.7628 36.1432 42.4532 33.0032 46.9887 33.0032C51.5233 33.0032 55.2128 36.1432 55.2128 40.0032C55.2128 43.8632 51.5233 47.0032 46.9887 47.0032ZM46.9887 33.4032C42.7117 33.4032 39.2328 36.364 39.2328 40.0032C39.2328 43.6424 42.7117 46.6032 46.9887 46.6032C51.2648 46.6032 54.7428 43.6424 54.7428 40.0032C54.7428 36.364 51.2648 33.4032 46.9887 33.4032ZM46.9887 44.6032C44.008 44.6032 41.5837 42.5392 41.5837 40.0032C41.5837 37.4672 44.008 35.4032 46.9887 35.4032C49.9695 35.4032 52.3937 37.4672 52.3937 40.0032C52.3937 42.5392 49.9695 44.6032 46.9887 44.6032ZM46.9887 35.8032C44.2674 35.8032 42.0537 37.6872 42.0537 40.0032C42.0537 42.3192 44.2674 44.2032 46.9887 44.2032C49.71 44.2032 51.9237 42.3192 51.9237 40.0032C51.9237 37.6872 49.71 35.8032 46.9887 35.8032Z" fill="#472B29"/>
</svg>
