<svg width="85" height="76" viewBox="0 0 85 76" fill="none" xmlns="http://www.w3.org/2000/svg">
<path d="M42.5 7.91667C33.5766 7.91667 25.0186 11.0862 18.7088 16.7279C12.399 22.3696 8.85419 30.0214 8.85419 38C8.85419 45.9786 12.399 53.6304 18.7088 59.2721C25.0186 64.9138 33.5766 68.0833 42.5 68.0833C51.4235 68.0833 59.9814 64.9138 66.2912 59.2721C72.601 53.6304 76.1459 45.9786 76.1459 38C76.1459 30.0214 72.601 22.3696 66.2912 16.7279C59.9814 11.0862 51.4235 7.91667 42.5 7.91667Z" fill="#039BE5"/>
<path d="M47.0546 45.9737H55.7618L57.1289 38.0649H47.0528V33.7424C47.0528 30.457 48.2534 27.5437 51.6906 27.5437H57.2139V20.6419C56.2434 20.5247 54.191 20.2682 50.3129 20.2682C42.2149 20.2682 37.4673 24.092 37.4673 32.8035V38.0649H29.1426V45.9737H37.4673V67.7112C39.1159 67.9329 40.7858 68.0833 42.5 68.0833C44.0495 68.0833 45.5618 67.9567 47.0546 67.7762V45.9737Z" fill="white"/>
</svg>
