<svg width="264" height="74" viewBox="0 0 264 74" fill="none" xmlns="http://www.w3.org/2000/svg">
<path d="M26.0938 46.2344H7.85938V38.875H26.0938C29.625 38.875 32.4844 38.3125 34.6719 37.1875C36.8594 36.0625 38.4531 34.5 39.4531 32.5C40.4844 30.5 41 28.2188 41 25.6562C41 23.3125 40.4844 21.1094 39.4531 19.0469C38.4531 16.9844 36.8594 15.3281 34.6719 14.0781C32.4844 12.7969 29.625 12.1562 26.0938 12.1562H9.96875V73H0.921875V4.75H26.0938C31.25 4.75 35.6094 5.64062 39.1719 7.42188C42.7344 9.20312 45.4375 11.6719 47.2812 14.8281C49.125 17.9531 50.0469 21.5312 50.0469 25.5625C50.0469 29.9375 49.125 33.6719 47.2812 36.7656C45.4375 39.8594 42.7344 42.2188 39.1719 43.8438C35.6094 45.4375 31.25 46.2344 26.0938 46.2344ZM68.8438 30.25V73H60.1719V22.2812H68.6094L68.8438 30.25ZM84.6875 22L84.6406 30.0625C83.9219 29.9062 83.2344 29.8125 82.5781 29.7812C81.9531 29.7188 81.2344 29.6875 80.4219 29.6875C78.4219 29.6875 76.6562 30 75.125 30.625C73.5938 31.25 72.2969 32.125 71.2344 33.25C70.1719 34.375 69.3281 35.7188 68.7031 37.2812C68.1094 38.8125 67.7188 40.5 67.5312 42.3438L65.0938 43.75C65.0938 40.6875 65.3906 37.8125 65.9844 35.125C66.6094 32.4375 67.5625 30.0625 68.8438 28C70.125 25.9062 71.75 24.2812 73.7188 23.125C75.7188 21.9375 78.0938 21.3438 80.8438 21.3438C81.4688 21.3438 82.1875 21.4219 83 21.5781C83.8125 21.7031 84.375 21.8438 84.6875 22ZM89.4688 48.2031V47.125C89.4688 43.4688 90 40.0781 91.0625 36.9531C92.125 33.7969 93.6562 31.0625 95.6562 28.75C97.6562 26.4062 100.078 24.5938 102.922 23.3125C105.766 22 108.953 21.3438 112.484 21.3438C116.047 21.3438 119.25 22 122.094 23.3125C124.969 24.5938 127.406 26.4062 129.406 28.75C131.438 31.0625 132.984 33.7969 134.047 36.9531C135.109 40.0781 135.641 43.4688 135.641 47.125V48.2031C135.641 51.8594 135.109 55.25 134.047 58.375C132.984 61.5 131.438 64.2344 129.406 66.5781C127.406 68.8906 124.984 70.7031 122.141 72.0156C119.328 73.2969 116.141 73.9375 112.578 73.9375C109.016 73.9375 105.812 73.2969 102.969 72.0156C100.125 70.7031 97.6875 68.8906 95.6562 66.5781C93.6562 64.2344 92.125 61.5 91.0625 58.375C90 55.25 89.4688 51.8594 89.4688 48.2031ZM98.1406 47.125V48.2031C98.1406 50.7344 98.4375 53.125 99.0312 55.375C99.625 57.5938 100.516 59.5625 101.703 61.2812C102.922 63 104.438 64.3594 106.25 65.3594C108.062 66.3281 110.172 66.8125 112.578 66.8125C114.953 66.8125 117.031 66.3281 118.812 65.3594C120.625 64.3594 122.125 63 123.312 61.2812C124.5 59.5625 125.391 57.5938 125.984 55.375C126.609 53.125 126.922 50.7344 126.922 48.2031V47.125C126.922 44.625 126.609 42.2656 125.984 40.0469C125.391 37.7969 124.484 35.8125 123.266 34.0938C122.078 32.3438 120.578 30.9688 118.766 29.9688C116.984 28.9688 114.891 28.4688 112.484 28.4688C110.109 28.4688 108.016 28.9688 106.203 29.9688C104.422 30.9688 102.922 32.3438 101.703 34.0938C100.516 35.8125 99.625 37.7969 99.0312 40.0469C98.4375 42.2656 98.1406 44.625 98.1406 47.125ZM158.094 73H149.422V17.875C149.422 14.0312 150.172 10.7813 151.672 8.125C153.172 5.46875 155.312 3.45312 158.094 2.07812C160.875 0.703125 164.172 0.015625 167.984 0.015625C170.234 0.015625 172.438 0.296875 174.594 0.859375C176.75 1.39062 178.969 2.0625 181.25 2.875L179.797 10.1875C178.359 9.625 176.688 9.09375 174.781 8.59375C172.906 8.0625 170.844 7.79688 168.594 7.79688C164.875 7.79688 162.188 8.64062 160.531 10.3281C158.906 11.9844 158.094 14.5 158.094 17.875V73ZM168.453 22.2812V28.9375H141.406V22.2812H168.453ZM185.516 22.2812V73H176.844V22.2812H185.516ZM209.188 1V73H200.469V1H209.188ZM244.156 73.9375C240.625 73.9375 237.422 73.3438 234.547 72.1562C231.703 70.9375 229.25 69.2344 227.188 67.0469C225.156 64.8594 223.594 62.2656 222.5 59.2656C221.406 56.2656 220.859 52.9844 220.859 49.4219V47.4531C220.859 43.3281 221.469 39.6562 222.688 36.4375C223.906 33.1875 225.562 30.4375 227.656 28.1875C229.75 25.9375 232.125 24.2344 234.781 23.0781C237.438 21.9219 240.188 21.3438 243.031 21.3438C246.656 21.3438 249.781 21.9688 252.406 23.2188C255.062 24.4688 257.234 26.2188 258.922 28.4688C260.609 30.6875 261.859 33.3125 262.672 36.3438C263.484 39.3438 263.891 42.625 263.891 46.1875V50.0781H226.016V43H255.219V42.3438C255.094 40.0938 254.625 37.9062 253.812 35.7812C253.031 33.6562 251.781 31.9062 250.062 30.5312C248.344 29.1562 246 28.4688 243.031 28.4688C241.062 28.4688 239.25 28.8906 237.594 29.7344C235.938 30.5469 234.516 31.7656 233.328 33.3906C232.141 35.0156 231.219 37 230.562 39.3438C229.906 41.6875 229.578 44.3906 229.578 47.4531V49.4219C229.578 51.8281 229.906 54.0938 230.562 56.2188C231.25 58.3125 232.234 60.1562 233.516 61.75C234.828 63.3438 236.406 64.5938 238.25 65.5C240.125 66.4062 242.25 66.8594 244.625 66.8594C247.688 66.8594 250.281 66.2344 252.406 64.9844C254.531 63.7344 256.391 62.0625 257.984 59.9688L263.234 64.1406C262.141 65.7969 260.75 67.375 259.062 68.875C257.375 70.375 255.297 71.5938 252.828 72.5312C250.391 73.4688 247.5 73.9375 244.156 73.9375Z" fill="#FFBF84" fill-opacity="0.81"/>
</svg>
